<?xml version="1.0" encoding="UTF-8" standalone="no"?>
<!-- Created with Inkscape (http://www.inkscape.org/) -->

<svg
   xmlns:dc="http://purl.org/dc/elements/1.1/"
   xmlns:cc="http://creativecommons.org/ns#"
   xmlns:rdf="http://www.w3.org/1999/02/22-rdf-syntax-ns#"
   xmlns:svg="http://www.w3.org/2000/svg"
   xmlns="http://www.w3.org/2000/svg"
   xmlns:sodipodi="http://sodipodi.sourceforge.net/DTD/sodipodi-0.dtd"
   xmlns:inkscape="http://www.inkscape.org/namespaces/inkscape"
   width="106.71988mm"
   height="19.087673mm"
   viewBox="0 0 378.1413 67.633487"
   id="svg2"
   version="1.1"
   inkscape:version="0.91 r13725"
   sodipodi:docname="error.svg">
  <defs
     id="defs4" />
  <sodipodi:namedview
     id="base"
     pagecolor="#ffffff"
     bordercolor="#666666"
     borderopacity="1.0"
     inkscape:pageopacity="0.0"
     inkscape:pageshadow="2"
     inkscape:zoom="1.4"
     inkscape:cx="254.50147"
     inkscape:cy="-18.846421"
     inkscape:document-units="px"
     inkscape:current-layer="layer1"
     showgrid="false"
     fit-margin-top="1"
     fit-margin-left="1"
     fit-margin-bottom="1"
     fit-margin-right="1"
     inkscape:window-width="1366"
     inkscape:window-height="706"
     inkscape:window-x="-4"
     inkscape:window-y="-4"
     inkscape:window-maximized="1" />
  <metadata
     id="metadata7">
    <rdf:RDF>
      <cc:Work
         rdf:about="">
        <dc:format>image/svg+xml</dc:format>
        <dc:type
           rdf:resource="http://purl.org/dc/dcmitype/StillImage" />
        <dc:title></dc:title>
      </cc:Work>
    </rdf:RDF>
  </metadata>
  <g
     inkscape:label="Layer 1"
     inkscape:groupmode="layer"
     id="layer1"
     transform="translate(-157.12634,-385.19723)">
    <g
       style="font-style:normal;font-weight:normal;font-size:80px;line-height:125%;font-family:sans-serif;letter-spacing:0px;word-spacing:0px;fill:#484848;fill-opacity:1;stroke:none;stroke-width:1px;stroke-linecap:butt;stroke-linejoin:miter;stroke-opacity:1"
       id="text4136">
      <path
         d="m 198.98996,448.07648 -38.32031,0 0,-58.16407 38.32031,0 0,6.875 -30.58594,0 0,15.9375 30.58594,0 0,6.875 -30.58594,0 0,21.60157 30.58594,0 0,6.875 z"
         style=""
         id="path4141" />
      <path
         d="m 237.93527,412.45148 -0.39062,0 q -1.64063,-0.39063 -3.20313,-0.54688 -1.52344,-0.19531 -3.63281,-0.19531 -3.39844,0 -6.5625,1.52344 -3.16406,1.48437 -6.09375,3.86718 l 0,30.97657 -7.34375,0 0,-43.63282 7.34375,0 0,6.44532 q 4.375,-3.51563 7.69531,-4.96094 3.35938,-1.48438 6.83594,-1.48438 1.91406,0 2.77344,0.11719 0.85937,0.0781 2.57812,0.35156 l 0,7.53907 z"
         style=""
         id="path4143" />
      <path
         d="m 272.15402,412.45148 -0.39062,0 q -1.64063,-0.39063 -3.20313,-0.54688 -1.52344,-0.19531 -3.63281,-0.19531 -3.39844,0 -6.5625,1.52344 -3.16406,1.48437 -6.09375,3.86718 l 0,30.97657 -7.34375,0 0,-43.63282 7.34375,0 0,6.44532 q 4.375,-3.51563 7.69531,-4.96094 3.35938,-1.48438 6.83594,-1.48438 1.91406,0 2.77344,0.11719 0.85937,0.0781 2.57812,0.35156 l 0,7.53907 z"
         style=""
         id="path4145" />
      <path
         d="m 316.33371,426.2796 q 0,10.66406 -5.46875,16.83594 -5.46875,6.17187 -14.64844,6.17187 -9.25781,0 -14.72656,-6.17187 -5.42969,-6.17188 -5.42969,-16.83594 0,-10.66406 5.42969,-16.83594 5.46875,-6.21093 14.72656,-6.21093 9.17969,0 14.64844,6.21093 5.46875,6.17188 5.46875,16.83594 z m -7.57813,0 q 0,-8.47656 -3.32031,-12.57812 -3.32031,-4.14063 -9.21875,-4.14063 -5.97656,0 -9.29687,4.14063 -3.28125,4.10156 -3.28125,12.57812 0,8.20313 3.32031,12.46094 3.32031,4.21875 9.25781,4.21875 5.85938,0 9.17969,-4.17969 3.35937,-4.21875 3.35937,-12.5 z"
         style=""
         id="path4147" />
      <path
         d="m 354.96652,412.45148 -0.39062,0 q -1.64063,-0.39063 -3.20313,-0.54688 -1.52344,-0.19531 -3.63281,-0.19531 -3.39844,0 -6.5625,1.52344 -3.16406,1.48437 -6.09375,3.86718 l 0,30.97657 -7.34375,0 0,-43.63282 7.34375,0 0,6.44532 q 4.375,-3.51563 7.69531,-4.96094 3.35938,-1.48438 6.83594,-1.48438 1.91406,0 2.77344,0.11719 0.85937,0.0781 2.57812,0.35156 l 0,7.53907 z"
         style=""
         id="path4149" />
      <path
         d="m 429.84933,431.70929 -8.63281,0 0,16.36719 -7.5,0 0,-16.36719 -27.85156,0 0,-8.98438 28.16406,-32.8125 7.1875,0 0,35.54688 8.63281,0 0,6.25 z m -16.13281,-6.25 0,-26.25 -22.53906,26.25 22.53906,0 z"
         style=""
         id="path4151" />
      <path
         d="m 479.38058,418.97491 q 0,15.66407 -4.92187,23.00782 -4.88281,7.30468 -15.19531,7.30468 -10.46875,0 -15.3125,-7.42187 -4.80469,-7.42188 -4.80469,-22.8125 0,-15.50781 4.88281,-22.89063 4.88281,-7.42187 15.23438,-7.42187 10.46875,0 15.27343,7.53906 4.84375,7.5 4.84375,22.69531 z m -10.27343,17.73438 q 1.36718,-3.16406 1.83593,-7.42188 0.50782,-4.29687 0.50782,-10.3125 0,-5.9375 -0.50782,-10.3125 -0.46875,-4.375 -1.875,-7.42187 -1.36718,-3.00781 -3.75,-4.53125 -2.34375,-1.52344 -6.05468,-1.52344 -3.67188,0 -6.09375,1.52344 -2.38282,1.52344 -3.78907,4.60937 -1.32812,2.89063 -1.83593,7.53907 -0.46875,4.64843 -0.46875,10.19531 0,6.09375 0.42968,10.19531 0.42969,4.10156 1.83594,7.34375 1.28906,3.04688 3.63281,4.64844 2.38282,1.60156 6.28907,1.60156 3.67187,0 6.09375,-1.52344 2.42187,-1.52343 3.75,-4.60937 z"
         style=""
         id="path4153" />
      <path
         d="m 531.72433,431.70929 -8.63281,0 0,16.36719 -7.5,0 0,-16.36719 -27.85156,0 0,-8.98438 28.16406,-32.8125 7.1875,0 0,35.54688 8.63281,0 0,6.25 z m -16.13281,-6.25 0,-26.25 -22.53906,26.25 22.53906,0 z"
         style=""
         id="path4155" />
    </g>
  </g>
</svg>
