<?xml version="1.0" encoding="UTF-8" standalone="no"?>
<svg
   xmlns:dc="http://purl.org/dc/elements/1.1/"
   xmlns:cc="http://creativecommons.org/ns#"
   xmlns:rdf="http://www.w3.org/1999/02/22-rdf-syntax-ns#"
   xmlns:svg="http://www.w3.org/2000/svg"
   xmlns="http://www.w3.org/2000/svg"
   xmlns:sodipodi="http://sodipodi.sourceforge.net/DTD/sodipodi-0.dtd"
   xmlns:inkscape="http://www.inkscape.org/namespaces/inkscape"
   enable-background="new 0 0 612 792"
   version="1.1"
   viewBox="0 0 297.64499 490.40302"
   xml:space="preserve"
   id="svg8"
   sodipodi:docname="trident_port.svg"
   inkscape:version="0.92.3 (2405546, 2018-03-11)"
   width="297.64499"
   height="490.40302"><metadata
   id="metadata14"><rdf:RDF><cc:Work
       rdf:about=""><dc:format>image/svg+xml</dc:format><dc:type
         rdf:resource="http://purl.org/dc/dcmitype/StillImage" /><dc:title /></cc:Work></rdf:RDF></metadata><defs
   id="defs12" /><sodipodi:namedview
   pagecolor="#ffffff"
   bordercolor="#666666"
   borderopacity="1"
   objecttolerance="10"
   gridtolerance="10"
   guidetolerance="10"
   inkscape:pageopacity="0"
   inkscape:pageshadow="2"
   inkscape:window-width="1366"
   inkscape:window-height="714"
   id="namedview10"
   showgrid="false"
   inkscape:zoom="0.5959596"
   inkscape:cx="-233.19588"
   inkscape:cy="246.01691"
   inkscape:window-x="0"
   inkscape:window-y="0"
   inkscape:window-maximized="1"
   inkscape:current-layer="svg8"
   fit-margin-top="0"
   fit-margin-left="0"
   fit-margin-bottom="0"
   fit-margin-right="0" />
	
	<path
   id="path4"
   d="m 297.642,49.183 c -0.759,0.11 -1.285,0.074 -1.705,0.269 -1.205,0.558 -2.409,1.141 -3.54,1.833 -15.479,9.479 -28.864,21.331 -40.152,35.547 -22.653,28.53 -33.69,61.319 -36.552,97.377 -1.523,19.211 -4.318,38.32 -6.472,57.482 -1.089,9.687 -2.024,19.39 -3.038,29.166 9.51,-1.566 16.893,1.918 23.221,7.676 8.662,7.883 10.098,20.648 2.687,29.734 -3.39,4.156 -8.524,7.114 -13.327,9.906 -0.18,0.104 -0.356,0.203 -0.53,0.297 2.668,7.489 4.84,15.567 6.324,24.246 0.563,-0.206 1.167,-0.426 1.513,-0.547 20.106,-7.053 32.49,-20.742 35.523,-42.1 2.582,-18.186 -7.431,-37.465 -24.464,-47.231 -2.907,-1.667 -3.829,-3.229 -3.417,-6.576 2.615,-21.288 5.39,-42.569 7.321,-63.925 1.789,-19.779 7.316,-38.067 15.954,-56.049 4.029,-8.389 15.475,-25.107 15.475,-25.107 0,0 0,187.09 0,280.14 h -101.05 v 22.549 h 16.932 c -5.077,24.299 -17.379,40.557 -26.932,49.984 v -76.666 c 1.428,-5.992 5.944,-14.009 19.416,-18.04 0.679,-0.203 1.356,-0.438 2.035,-0.674 -0.439,-3.59 -0.921,-6.534 -1.022,-8.118 -0.653,-5.273 -1.614,-10.194 -2.787,-14.796 -2.343,0.743 -4.286,1.382 -5.673,1.884 -8.488,3.068 -21.69,14.162 -24.518,16.448 -2.827,-2.286 -16.029,-13.38 -24.517,-16.448 -1.387,-0.502 -3.331,-1.141 -5.673,-1.884 -1.172,4.602 -2.134,9.522 -2.787,14.796 -0.102,1.584 -0.583,4.528 -1.022,8.118 0.678,0.236 1.356,0.471 2.035,0.674 13.219,3.956 17.815,11.75 19.333,17.702 v 76.713 c -9.503,-9.574 -21.74,-25.889 -26.873,-49.694 h 17.039 V 381.32 H 25.179 V 101.18 c 0,0 11.445,16.719 15.475,25.107 8.638,17.981 14.165,36.27 15.954,56.049 1.932,21.355 4.706,42.637 7.321,63.925 0.412,3.348 -0.51,4.909 -3.417,6.576 -17.033,9.767 -27.046,29.046 -24.464,47.231 3.033,21.357 15.417,35.047 35.523,42.1 0.33,0.116 0.895,0.321 1.437,0.52 1.444,-8.736 3.564,-16.845 6.176,-24.344 -0.102,-0.057 -0.202,-0.112 -0.306,-0.172 -4.803,-2.792 -9.938,-5.75 -13.327,-9.906 -7.411,-9.086 -5.976,-21.852 2.687,-29.734 6.328,-5.758 13.711,-9.242 23.221,-7.676 C 90.445,261.08 89.51,251.377 88.421,241.69 86.268,222.528 83.473,203.419 81.949,184.208 79.088,148.15 68.051,115.361 45.397,86.831 34.109,72.615 20.724,60.764 5.245,51.284 4.114,50.592 2.91,50.009 1.705,49.451 1.285,49.257 0.759,49.293 0,49.182 v 354.69 h 82.278 c 12.65,59.656 66.543,86.531 66.543,86.531 0,0 54.168,-25.693 66.641,-86.531 h 82.183 V 49.182 Z m -218.01,320.37 c 0,0.564 0.019,1.124 0.027,1.686 h 26.348 c -0.021,-0.702 -0.037,-1.407 -0.045,-2.111 -0.01,-0.58 -0.018,-1.16 -0.019,-1.739 -0.02,-8.752 1.993,-17.254 2.233,-20.567 6.917,-50.522 39.9,-72.145 40.603,-72.6 2.275,1.966 34.573,28.195 40.717,73.271 0.232,3.308 2.09,11.883 2.199,20.641 0.016,0.581 0.023,1.163 0.021,1.746 -0.002,0.453 -0.008,0.906 -0.016,1.359 h 26.287 c 0.01,-0.562 0.027,-1.121 0.027,-1.686 0,-44.438 -18.871,-75.975 -36.902,-95.973 h 0.514 C 166.212,241.085 163.435,204.732 165.022,168.65 166.54,134.164 167.674,89.664 168.973,55.17 169.682,36.324 165.164,18.878 152.393,3.659 151.619,2.737 149.205,0.423 148.544,0 c 0,0 -3.071,2.771 -3.843,3.69 -12.771,15.22 -17.288,32.665 -16.579,51.51 1.298,34.493 2.433,78.993 3.951,113.48 1.579,35.907 -0.087,72.666 -15.955,104.69 -17.903,19.767 -36.486,51.129 -36.486,96.181 z"
   inkscape:connector-curvature="0"
   style="fill:#ffffff;stroke:none;stroke-opacity:1;stroke-width:5;stroke-miterlimit:4;stroke-dasharray:none;stroke-dashoffset:0;paint-order:normal;stroke-linejoin:bevel;fill-opacity:1"
   inkscape:export-xdpi="83.045067"
   inkscape:export-ydpi="83.045067"
   inkscape:export-filename="/mnt/disk_d/3. Проекти/2. Android/Patriots_Ukraine/app/src/main/res/mipmap-hdpi/trident_port.png" />

</svg>