<?xml version="1.0" encoding="UTF-8" standalone="no"?>
<svg
   xmlns:dc="http://purl.org/dc/elements/1.1/"
   xmlns:cc="http://creativecommons.org/ns#"
   xmlns:rdf="http://www.w3.org/1999/02/22-rdf-syntax-ns#"
   xmlns:svg="http://www.w3.org/2000/svg"
   xmlns="http://www.w3.org/2000/svg"
   xmlns:sodipodi="http://sodipodi.sourceforge.net/DTD/sodipodi-0.dtd"
   xmlns:inkscape="http://www.inkscape.org/namespaces/inkscape"
   width="140"
   height="175.50987"
   viewBox="0 0 112 140.4079"
   version="1.1"
   id="svg2"
   inkscape:version="0.91 r13725"
   sodipodi:docname="logo_dark.svg"
   inkscape:export-filename="C:\Users\andriy\Desktop\logo_light_2.png"
   inkscape:export-xdpi="90"
   inkscape:export-ydpi="90">
  <metadata
     id="metadata54">
    <rdf:RDF>
      <cc:Work
         rdf:about="">
        <dc:format>image/svg+xml</dc:format>
        <dc:type
           rdf:resource="http://purl.org/dc/dcmitype/StillImage" />
        <dc:title></dc:title>
      </cc:Work>
    </rdf:RDF>
  </metadata>
  <defs
     id="defs52" />
  <sodipodi:namedview
     pagecolor="#ffffff"
     bordercolor="#666666"
     borderopacity="1"
     objecttolerance="10"
     gridtolerance="10"
     guidetolerance="10"
     inkscape:pageopacity="0"
     inkscape:pageshadow="2"
     inkscape:window-width="1366"
     inkscape:window-height="706"
     id="namedview50"
     showgrid="false"
     showborder="true"
     inkscape:showpageshadow="true"
     inkscape:zoom="1.4384762"
     inkscape:cx="265.59476"
     inkscape:cy="88.493151"
     inkscape:window-x="-4"
     inkscape:window-y="-4"
     inkscape:window-maximized="1"
     inkscape:current-layer="svg2"
     units="px"
     fit-margin-top="0"
     fit-margin-left="0"
     fit-margin-right="0"
     fit-margin-bottom="0" />
  <path
     d="m 55.499893,0 1.067137,0 c 4.444749,0.26473585 8.881798,0.85043883 13.192941,1.9924585 7.467051,2.142229 15.637433,1.6528507 22.818367,-1.30245586 C 92.768233,5.2231191 94.404979,9.6653553 97.218362,13.227745 101.03474,18.111214 106.42386,21.494427 112,24.0432 c -1.55921,1.096451 -2.83496,2.562167 -3.76832,4.217661 -1.78627,3.13165 -2.67698,6.680621 -3.27889,10.208202 -0.91174,5.576219 -1.05639,11.246001 -0.94931,16.883737 0.0702,5.720577 0.68704,11.414433 0.81277,17.132443 0.19044,7.69166 0.0633,15.455545 -1.41731,23.032254 -0.9544,4.661553 -2.40136,9.400663 -5.415676,13.171653 -5.75279,6.83326 -12.850651,12.54299 -20.793728,16.63748 -6.798356,3.39143 -13.192949,7.63301 -18.809284,12.75985 -0.79428,0.74356 -1.658168,1.4282 -2.29197,2.32142 l -0.13377,0 c -0.625758,-0.90125 -1.513743,-1.56999 -2.294605,-2.32427 -5.891718,-5.42367 -12.700927,-9.76451 -19.871019,-13.29192 -7.49652,-3.97939 -14.086331,-9.53449 -19.619723,-15.94495 -1.893501,-2.3053 -3.158512,-5.05725 -4.099913,-7.87075 C 8.6303928,96.595288 7.9430718,92.008652 7.5312085,87.427322 6.9187699,80.069971 7.0819026,72.669757 7.5365735,65.309742 7.948439,59.415258 8.1543688,53.499378 7.9216923,47.594281 7.702389,42.900621 7.2504072,38.177543 5.9720318,33.63903 5.18307,30.935154 4.0892285,28.250076 2.2545658,26.078429 1.604661,25.345627 0.92802865,24.578062 0,24.198297 L 0,23.90408 C 0.8424485,23.765044 1.5725678,23.302375 2.3267588,22.930582 6.9401564,20.587819 11.331574,17.576406 14.586369,13.503204 17.514879,9.8846882 19.229207,5.3355404 19.445823,0.68733071 26.632033,3.6560529 34.815835,4.1320871 42.29086,1.9844097 46.607413,0.85043883 51.049681,0.26473585 55.499915,0 Z"
     id="path6"
     style="fill:#b5b5b5;fill-opacity:1"
     inkscape:connector-curvature="0" />
  <path
     d="m 51.175343,15.883509 c 1.658158,-1.997863 3.211998,-4.075891 4.835347,-6.0977582 1.586022,1.9576922 3.177276,3.9126722 4.765888,5.8677542 2.321304,3.067551 2.754678,7.100609 2.56477,10.831407 -0.732805,10.51589 -1.516407,21.023801 -2.324085,31.531596 -0.302252,4.728428 -0.502762,9.470278 -0.267461,14.206622 0.232671,3.072941 0.427919,6.303673 1.949658,9.061006 -1.430822,-0.01616 -2.86429,0.02654 -4.295094,-0.02654 -1.583302,-2.808178 -2.032632,-6.132467 -1.933627,-9.315092 -0.0076,-10.70039 0.01078,-21.403514 -0.01008,-32.103879 -0.133746,-0.06171 -0.403886,-0.184587 -0.540266,-0.24611 -0.583012,0.452014 -0.320993,1.227653 -0.374456,1.86141 0,10.9599 0.01651,21.922389 -0.0075,32.882243 -0.262076,2.380229 -0.684677,4.822012 -1.877437,6.934817 -1.422841,0.0265 -2.845711,0 -4.268381,0.01612 1.182067,-2.110122 1.5271,-4.55187 1.770467,-6.924126 0.558092,-6.42412 0.10881,-12.880236 -0.375227,-19.296173 -0.68942,-9.486256 -1.430236,-18.969884 -2.031972,-28.46407 -0.205977,-3.674686 0.179224,-7.659662 2.417748,-10.719162 z"
     id="path10"
     style="fill:#363636;fill-opacity:1"
     inkscape:connector-curvature="0" />
  <path
     d="m 22.992112,64.718633 c -0.574979,-11.141685 -0.657881,-22.336841 0.296876,-33.459839 2.666392,3.696088 6.948147,5.886473 11.326182,6.817131 3.880639,0.837125 7.715803,2.687817 10.152222,5.913188 1.666159,2.080701 2.455128,4.715066 2.71712,7.333265 0.377167,3.966215 -0.147,7.951119 -0.909211,11.8398 -0.767587,4.121291 -1.270321,8.386947 -0.545604,12.55381 0.264815,1.545778 0.767568,3.054194 1.527115,4.43151 -2.89102,-1.920251 -7.218259,-1.462959 -9.438112,1.283738 -1.703526,1.995096 -1.5618,5.316752 0.398541,7.089939 1.794561,1.508394 4.214893,1.914875 6.466809,2.230462 1.872057,0.275475 3.990255,0.882552 4.939666,2.682462 -1.088487,1.032325 -2.187724,2.318698 -2.152957,3.912725 0.01604,1.725003 1.264976,3.083566 2.497941,4.142746 -0.901194,1.30248 -0.585717,2.96584 0.205904,4.23622 -2.572783,0.2436 -4.939587,-1.28101 -6.306344,-3.37242 -7.188827,-0.0963 -14.420528,0.30752 -21.45694,1.87193 1.393359,-8.721192 1.733035,-17.59229 1.227553,-26.404592 -0.291509,-4.369947 -0.714066,-8.729386 -0.946761,-13.102075 z"
     id="path14"
     style="fill:#363636;fill-opacity:1"
     inkscape:connector-curvature="0" />
  <path
     d="m 77.598747,38.046534 c 4.356625,-0.930766 8.552847,-3.161212 11.238182,-6.790357 1.077816,14.781548 0.796879,29.648759 -0.553886,44.406299 -0.764812,9.518341 -0.454398,19.132888 1.080637,28.562824 -7.033829,-1.5484 -14.257485,-1.97621 -21.443688,-1.87193 -1.393371,2.05917 -3.72821,3.6213 -6.303661,3.36952 0.794341,-1.26748 1.093872,-2.92823 0.20595,-4.2307 1.208835,-1.08857 2.489882,-2.431092 2.503251,-4.164114 0.01627,-1.588618 -1.077799,-2.864332 -2.160935,-3.899289 1.123218,-2.06203 3.650594,-2.548786 5.779475,-2.802819 2.075349,-0.337024 4.329898,-0.815725 5.87304,-2.348174 1.751744,-1.826612 1.75981,-4.939696 0.128374,-6.846558 -2.211779,-2.786771 -6.571064,-3.174559 -9.475636,-1.278383 1.160828,-2.099424 1.687647,-4.487738 1.850796,-6.862638 0.232723,-3.487457 -0.195134,-6.980278 -0.858448,-10.4009 -0.652672,-3.268167 -1.123281,-6.600449 -1.002922,-9.940819 0.130997,-3.022112 0.783632,-6.137787 2.596887,-8.622305 2.415003,-3.498213 6.48282,-5.431883 10.542584,-6.279657 z"
     id="path16"
     style="fill:#363636;fill-opacity:1"
     inkscape:connector-curvature="0" />
  <path
     d="m 31.371082,43.480978 c 3.310996,1.508376 6.60323,3.853848 7.814674,7.442936 0.957504,3.166578 0.815756,6.61117 -0.09353,9.772413 -0.419861,1.551187 -1.1928,2.992708 -1.460239,4.586636 -0.679273,3.586465 0.08017,7.255788 1.216876,10.665652 -1.409355,-0.366401 -3.038167,-0.286139 -4.174794,0.716754 -1.698243,1.468289 -2.356171,3.73887 -2.802877,5.857046 0.08019,-1.476301 0.25951,-2.941916 0.395838,-4.412828 1.018999,-11.524234 0.973536,-23.192717 -0.895939,-34.628609 z"
     id="path18"
     style="fill:#b5b5b5;fill-opacity:1"
     inkscape:connector-curvature="0" />
  <path
     d="m 74.397495,48.121109 c 1.596628,-2.104732 3.891228,-3.543617 6.25815,-4.642775 -1.366618,8.60631 -1.807844,17.341041 -1.519057,26.046311 0.05896,4.150695 0.580337,8.277343 0.762134,12.417402 -0.411789,-1.963059 -1.155353,-4.016995 -2.741199,-5.335497 -1.083208,-0.912002 -2.599619,-0.994906 -3.92332,-0.657935 1.449408,-4.22024 2.166207,-9.007485 0.438525,-13.259858 -1.243697,-3.016755 -1.807968,-6.365228 -1.264941,-9.606564 0.238005,-1.78383 0.879797,-3.530279 1.989708,-4.961084 z"
     id="path20"
     style="fill:#b5b5b5;fill-opacity:1"
     inkscape:connector-curvature="0" />
  <path
     d="m 42.467375,81.254724 c 0.692667,-1.155337 2.618319,-1.182112 3.337647,-0.04292 0.486768,0.665926 0.561657,1.519092 0.37982,2.305359 0.470688,-0.0071 0.941399,-0.01008 1.412098,-0.01058 0.264739,-0.607111 0.494819,-1.593965 1.334554,-1.521766 4.733774,-0.0072 9.470131,-0.0029 14.203948,-0.0029 0.826375,-0.05624 1.059036,0.94407 1.366602,1.527108 0.451959,0 0.901236,0.0028 1.355932,0.0072 -0.131023,-0.778255 -0.13639,-1.642105 0.390426,-2.286645 0.687362,-1.099181 2.460542,-1.125922 3.246838,-0.131038 0.366398,0.52151 0.500057,1.163372 0.532122,1.791868 0.612524,-0.251387 1.350702,-0.387794 1.955101,-0.03212 1.543163,0.978849 1.476249,3.808404 -0.310225,4.487711 -0.542942,0.275471 -1.133927,0.06415 -1.660829,-0.128378 0.0084,0.853143 -0.278131,1.861421 -1.104554,2.265244 -0.893244,0.5028 -2.102165,0.224663 -2.671719,-0.628486 -0.529624,-0.633841 -0.500192,-1.500357 -0.374481,-2.267926 -0.457375,0 -0.912004,0.0028 -1.369378,0.01008 -0.355612,0.564312 -0.706002,1.198163 -1.329102,1.505705 -1.267736,0.157801 -2.524663,-0.18719 -3.79235,-0.125682 -2.687829,0.04 -5.38097,-0.06151 -8.066121,0.04821 -0.997568,0.03211 -2.281317,0.476051 -3.024685,-0.414538 -0.283507,-0.299538 -0.473489,-0.665936 -0.68743,-1.010941 -0.470726,-0.0099 -0.938683,-0.01065 -1.409426,-0.01317 0.171149,0.775583 0.131047,1.628749 -0.36106,2.286659 -0.684664,1.101865 -2.473806,1.15267 -3.246746,0.125689 -0.417201,-0.484066 -0.518862,-1.139302 -0.513456,-1.757112 -1.056473,0.556301 -2.530096,0.04 -2.904506,-1.115227 -0.320909,-1.067097 -0.227295,-2.492589 0.780938,-3.169206 0.617793,-0.44396 1.436179,-0.350356 2.107502,-0.0827 0.03744,-0.55627 0.08565,-1.14466 0.42254,-1.615354 z"
     id="path22"
     style="fill:#363636;fill-opacity:1"
     inkscape:connector-curvature="0" />
  <path
     d="m 31.694743,96.763757 c -0.0027,-2.987323 0.0079,-5.972022 -0.0027,-8.95666 0.72213,1.75174 1.492352,3.562302 2.861684,4.918297 0.663316,0.676616 1.567226,1.021613 2.433679,1.358594 1.917567,0.722096 3.902026,1.246274 5.878376,1.770483 -3.73879,-0.07754 -7.555149,-0.235359 -11.170997,0.909286 z"
     id="path24"
     style="fill:#b5b5b5;fill-opacity:1"
     inkscape:connector-curvature="0" />
  <path
     d="m 76.587798,93.426051 c 1.97645,-1.256966 2.867039,-3.559661 3.81648,-5.594895 -0.01008,2.976654 -0.01008,5.955993 -0.01008,8.932601 -3.623689,-1.133961 -7.448275,-1.002903 -11.195125,-0.898612 2.489908,-0.708745 5.03868,-1.310467 7.381449,-2.439094 z"
     id="path26"
     style="fill:#b5b5b5;fill-opacity:1"
     inkscape:connector-curvature="0" />
  <path
     d="m 51.151249,89.232557 c 0.0074,-0.139084 0.01619,-0.417214 0.02133,-0.556291 3.24944,0.0027 6.498869,0.0027 9.748433,0 -0.01151,0.139077 -0.03207,0.417207 -0.043,0.556291 -3.241439,0.01056 -6.485485,0.01056 -9.726925,0 z"
     id="path28"
     style="fill:#363636;fill-opacity:1"
     inkscape:connector-curvature="0" />
  <path
     d="m 50.859704,89.919899 c 3.450061,0.01608 6.902733,0.01608 10.352781,0 0.623185,0.644496 0.663276,1.952319 -0.243347,2.356181 -3.294959,0.03999 -6.595203,0.04551 -9.887424,-0.0026 -0.901267,-0.387791 -0.855824,-1.738392 -0.22201,-2.353503 z"
     id="path30"
     style="fill:#363636;fill-opacity:1"
     inkscape:connector-curvature="0" />
  <path
     d="m 51.394702,93.557125 c 0.0188,-0.144414 0.05889,-0.433263 0.08018,-0.574985 3.064918,0.05338 6.12982,0.0027 9.194688,0.02406 0,0.139074 0,0.417213 0,0.556289 -3.091589,0.0072 -6.183274,0.01318 -9.274841,-0.0072 z"
     id="path32"
     style="fill:#363636;fill-opacity:1"
     inkscape:connector-curvature="0" />
  <path
     d="m 51.108495,94.223056 c 3.257429,0.08827 6.517612,-0.01612 9.775029,0.05078 0.944016,0.435923 0.700742,2.23315 -0.401195,2.27324 -3.040751,0.0099 -6.089657,0.03996 -9.130558,-0.01316 -0.93076,-0.347645 -0.93076,-1.714326 -0.243276,-2.310725 z"
     id="path34"
     style="fill:#363636;fill-opacity:1"
     inkscape:connector-curvature="0" />
  <path
     d="m 51.605935,97.258565 c 2.947177,-0.0072 5.89439,-0.0072 8.84166,0 l -0.02127,0.478693 c -2.912474,0 -5.824923,0.05075 -8.734685,-0.02407 l -0.08571,-0.454604 z"
     id="path36"
     style="fill:#363636;fill-opacity:1"
     inkscape:connector-curvature="0" />
  <path
     d="m 51.881405,100.86632 c -1.310456,-0.0163 -1.345256,-2.447053 -0.02144,-2.431044 2.941952,-0.01068 5.883764,-0.0027 8.825666,-0.0027 0.679334,0.668623 0.727464,1.987124 -0.230018,2.420354 -2.856268,0.0451 -5.715204,0.0215 -8.574208,0.0134 z"
     id="path38"
     style="fill:#363636;fill-opacity:1"
     inkscape:connector-curvature="0" />
  <path
     d="m 51.884104,101.58577 c 2.768011,-0.003 5.536045,-0.003 8.304068,0 0,0.15517 0,0.46539 0,0.6205 -2.768023,0.003 -5.536057,0 -8.304068,0 0,-0.15511 0,-0.46533 0,-0.6205 z"
     id="path40"
     style="fill:#363636;fill-opacity:1"
     inkscape:connector-curvature="0" />
  <path
     d="m 51.86799,105.16155 c -0.770247,-0.51349 -0.829059,-1.59665 -0.2701,-2.29469 2.96596,0.0827 5.939917,0.0323 8.908519,0.0268 0.492135,0.66057 0.540328,1.83991 -0.328938,2.20368 -2.768037,0.0824 -5.544095,-0.0455 -8.309481,0.065 z"
     id="path42"
     style="fill:#363636;fill-opacity:1"
     inkscape:connector-curvature="0" />
  <path
     d="m 52.103347,105.84066 c 2.639694,-0.003 5.281965,-0.01 7.921685,0.003 -0.03184,0.14961 -0.09624,0.4465 -0.128363,0.5962 -2.583503,0.0486 -5.167017,0.01 -7.750507,0.0201 -0.01115,-0.15515 -0.03219,-0.46554 -0.04294,-0.61795 z"
     id="path44"
     style="fill:#363636;fill-opacity:1"
     inkscape:connector-curvature="0" />
  <path
     d="m 49.74983,107.16204 c 4.196209,-0.003 8.389758,-0.01 12.585882,0.003 -0.304851,1.83975 -0.871815,3.74957 -2.227749,5.10005 -2.032559,1.95253 -5.51474,2.14495 -7.723799,0.36921 -1.682203,-1.29978 -2.353499,-3.44757 -2.634334,-5.47191 z"
     id="path46"
     style="fill:#363636;fill-opacity:1"
     inkscape:connector-curvature="0" />
</svg>
