<?xml version="1.0" encoding="UTF-8" standalone="no"?>
<!-- Created with Inkscape (http://www.inkscape.org/) -->

<svg
   xmlns:dc="http://purl.org/dc/elements/1.1/"
   xmlns:cc="http://creativecommons.org/ns#"
   xmlns:rdf="http://www.w3.org/1999/02/22-rdf-syntax-ns#"
   xmlns:svg="http://www.w3.org/2000/svg"
   xmlns="http://www.w3.org/2000/svg"
   xmlns:xlink="http://www.w3.org/1999/xlink"
   xmlns:sodipodi="http://sodipodi.sourceforge.net/DTD/sodipodi-0.dtd"
   xmlns:inkscape="http://www.inkscape.org/namespaces/inkscape"
   width="582"
   height="257.83566"
   viewBox="0 0 582 257.83567"
   id="svg2"
   version="1.1"
   inkscape:version="0.91 r13725"
   sodipodi:docname="logo_2_d_2.svg"
   inkscape:export-filename="C:\Users\andriy\Desktop\logo9.png"
   inkscape:export-xdpi="90"
   inkscape:export-ydpi="90">
  <defs
     id="defs4">
    <linearGradient
       inkscape:collect="always"
       id="linearGradient4323">
      <stop
         style="stop-color:#0014d4;stop-opacity:1"
         offset="0"
         id="stop4325" />
      <stop
         style="stop-color:#007ad7;stop-opacity:1"
         offset="1"
         id="stop4327" />
    </linearGradient>
    <linearGradient
       inkscape:collect="always"
       id="linearGradient4235">
      <stop
         style="stop-color:#d4aa00;stop-opacity:1"
         offset="0"
         id="stop4237" />
      <stop
         style="stop-color:#ffcc00;stop-opacity:1"
         offset="1"
         id="stop4239" />
    </linearGradient>
    <linearGradient
       id="linearGradient4221"
       inkscape:collect="always">
      <stop
         id="stop4223"
         offset="0"
         style="stop-color:#0055d4;stop-opacity:1" />
      <stop
         id="stop4225"
         offset="1"
         style="stop-color:#003380;stop-opacity:1" />
    </linearGradient>
    <linearGradient
       inkscape:collect="always"
       id="linearGradient4167">
      <stop
         style="stop-color:#000000;stop-opacity:1;"
         offset="0"
         id="stop4169" />
      <stop
         style="stop-color:#000000;stop-opacity:0;"
         offset="1"
         id="stop4171" />
    </linearGradient>
    <linearGradient
       inkscape:collect="always"
       xlink:href="#linearGradient4167"
       id="linearGradient4205"
       x1="62.897846"
       y1="395.81363"
       x2="682.15637"
       y2="395.81363"
       gradientUnits="userSpaceOnUse" />
    <linearGradient
       inkscape:collect="always"
       xlink:href="#linearGradient4235"
       id="linearGradient4253"
       x1="400.45984"
       y1="480.75754"
       x2="400.12463"
       y2="615.10785"
       gradientUnits="userSpaceOnUse" />
    <linearGradient
       inkscape:collect="always"
       xlink:href="#linearGradient4221"
       id="linearGradient4265"
       x1="366.68536"
       y1="472.53464"
       x2="369.71582"
       y2="312.93054"
       gradientUnits="userSpaceOnUse" />
    <linearGradient
       inkscape:collect="always"
       xlink:href="#linearGradient4323"
       id="linearGradient3379"
       x1="366.68536"
       y1="472.53464"
       x2="366.85867"
       y2="335.78769"
       gradientUnits="userSpaceOnUse"
       gradientTransform="matrix(1.5251636,0,0,1.5251636,-51.096424,110.54517)" />
  </defs>
  <sodipodi:namedview
     id="base"
     pagecolor="#ffffff"
     bordercolor="#666666"
     borderopacity="1.0"
     inkscape:pageopacity="0.0"
     inkscape:pageshadow="2"
     inkscape:zoom="1.4"
     inkscape:cx="284.454"
     inkscape:cy="124.87551"
     inkscape:document-units="px"
     inkscape:current-layer="layer1"
     showgrid="false"
     units="px"
     inkscape:window-width="1366"
     inkscape:window-height="706"
     inkscape:window-x="-4"
     inkscape:window-y="-4"
     inkscape:window-maximized="1"
     fit-margin-top="9"
     fit-margin-left="9"
     fit-margin-right="9"
     fit-margin-bottom="9" />
  <metadata
     id="metadata7">
    <rdf:RDF>
      <cc:Work
         rdf:about="">
        <dc:format>image/svg+xml</dc:format>
        <dc:type
           rdf:resource="http://purl.org/dc/dcmitype/StillImage" />
        <dc:title></dc:title>
      </cc:Work>
    </rdf:RDF>
  </metadata>
  <g
     inkscape:label="Layer 1"
     inkscape:groupmode="layer"
     id="layer1"
     transform="translate(-25.800041,-608.76689)">
    <g
       style="font-style:normal;font-variant:normal;font-weight:bold;font-stretch:normal;font-size:115.3288269px;line-height:125%;font-family:Aharoni;-inkscape-font-specification:'Aharoni Bold';letter-spacing:0px;word-spacing:0px;fill:#363636;fill-opacity:1;stroke:#b5b5b5;stroke-width:3;stroke-linecap:butt;stroke-linejoin:miter;stroke-opacity:1;stroke-miterlimit:4;stroke-dasharray:none"
       id="text3351"
       transform="translate(-2.3782875,0)">
      <path
         d="m 114.73433,709.20325 -21.624152,0 0,-67.6318 -31.929416,0 0,67.6318 -21.624155,0 0,-83.84992 75.177723,0 0,83.84992 z"
         style="fill:#363636;fill-opacity:1;stroke:#b5b5b5;stroke-opacity:1;stroke-width:3;stroke-miterlimit:4;stroke-dasharray:none"
         id="path3377"
         inkscape:connector-curvature="0" />
      <path
         d="m 173.35607,692.70357 0,-13.17722 q -4.11085,0.33787 -8.89744,0.95732 -4.7866,0.56313 -7.26437,1.35151 -3.04089,0.95732 -4.67397,2.81564 -1.57676,1.80201 -1.57676,4.7866 0,1.97095 0.33788,3.20983 0.33787,1.23889 1.68938,2.36515 1.2952,1.12625 3.09721,1.68938 1.80202,0.50682 5.63129,0.50682 3.0409,0 6.13811,-1.23889 3.15352,-1.23888 5.51867,-3.26614 z m 0,9.79844 q -1.63308,1.23889 -4.05453,2.98459 -2.42146,1.7457 -4.56135,2.75933 -2.98458,1.35151 -6.19442,1.97095 -3.20983,0.67575 -7.03911,0.67575 -9.01007,0 -15.09186,-5.57497 -6.08179,-5.57498 -6.08179,-14.24717 0,-6.92649 3.09721,-11.31889 3.09721,-4.39241 8.78481,-6.92649 5.63129,-2.53408 13.9656,-3.60402 8.33431,-1.06995 17.28806,-1.57677 l 0,-0.33787 q 0,-5.2371 -4.27978,-7.20806 -4.27978,-2.02726 -12.61409,-2.02726 -5.01185,0 -10.69945,1.80201 -5.68761,1.7457 -8.16537,2.70302 l -1.85833,0 0,-15.26079 q 3.20984,-0.8447 10.41789,-1.97096 7.26436,-1.18257 14.52873,-1.18257 17.28806,0 24.94661,5.34973 7.71487,5.29341 7.71487,16.66862 l 0,43.02306 -20.1037,0 0,-6.70124 z"
         style="fill:#363636;fill-opacity:1;stroke:#b5b5b5;stroke-opacity:1;stroke-width:3;stroke-miterlimit:4;stroke-dasharray:none"
         id="path3379"
         inkscape:connector-curvature="0" />
      <path
         d="m 263.68196,659.7042 -20.16002,0 0,49.49905 -20.27265,0 0,-49.49905 -20.16002,0 0,-13.74034 60.59269,0 0,13.74034 z"
         style="fill:#363636;fill-opacity:1;stroke:#b5b5b5;stroke-opacity:1;stroke-width:3;stroke-miterlimit:4;stroke-dasharray:none"
         id="path3381"
         inkscape:connector-curvature="0" />
      <path
         d="m 339.81701,676.7107 q 0,7.8275 -2.42145,14.24717 -2.36515,6.41967 -6.25074,10.58682 -4.05453,4.39241 -9.179,6.64492 -5.12447,2.25252 -10.98102,2.25252 -5.40603,0 -9.179,-1.18257 -3.77296,-1.12626 -7.71487,-3.20984 l 0,26.35444 -20.27264,0 0,-86.4403 20.27264,0 0,6.58861 q 4.67397,-3.71666 9.51688,-6.02548 4.89923,-2.30883 11.26258,-2.30883 11.82571,0 18.35801,8.67218 6.58861,8.67219 6.58861,23.82036 z m -20.89209,0.39419 q 0,-9.23531 -3.15352,-13.40247 -3.15352,-4.16715 -9.96738,-4.16715 -2.87196,0 -5.91286,0.901 -3.04089,0.8447 -5.80023,2.47777 l 0,31.81679 q 2.02727,0.78838 4.3361,1.01363 2.30883,0.22525 4.56134,0.22525 8.05275,0 11.99465,-4.67397 3.9419,-4.73028 3.9419,-14.19085 z"
         style="fill:#363636;fill-opacity:1;stroke:#b5b5b5;stroke-opacity:1;stroke-width:3;stroke-miterlimit:4;stroke-dasharray:none"
         id="path3383"
         inkscape:connector-curvature="0" />
      <path
         d="m 374.73101,709.20325 -20.27265,0 0,-63.23939 20.27265,0 0,63.23939 z m 0.56313,-72.24946 -21.39891,0 0,-15.37342 21.39891,0 0,15.37342 z"
         style="fill:#363636;fill-opacity:1;stroke:#b5b5b5;stroke-opacity:1;stroke-width:3;stroke-miterlimit:4;stroke-dasharray:none"
         id="path3385"
         inkscape:connector-curvature="0" />
      <path
         d="m 458.52461,677.61171 q 0,15.59867 -9.12269,24.60874 -9.06637,8.95375 -25.50974,8.95375 -16.44337,0 -25.56606,-8.95375 -9.06638,-9.01007 -9.06638,-24.60874 0,-15.7113 9.12269,-24.66505 9.17901,-8.95376 25.50975,-8.95376 16.55599,0 25.56606,9.01007 9.06637,9.01006 9.06637,24.60874 z M 433.578,692.98513 q 1.97095,-2.42145 2.92827,-5.80023 1.01363,-3.43509 1.01363,-9.46057 0,-5.57497 -1.01363,-9.34794 -1.01363,-3.77296 -2.81565,-6.02548 -1.80201,-2.30883 -4.33609,-3.26615 -2.53408,-0.95732 -5.46235,-0.95732 -2.92827,0 -5.2371,0.78838 -2.25252,0.78838 -4.3361,3.15353 -1.85832,2.1962 -2.98458,6.02548 -1.06994,3.82927 -1.06994,9.6295 0,5.18079 0.95731,9.01007 0.95732,3.77296 2.81565,6.08179 1.80201,2.19621 4.27978,3.20984 2.53408,1.01363 5.74392,1.01363 2.75933,0 5.2371,-0.90101 2.53408,-0.95732 4.27978,-3.15352 z"
         style="fill:#363636;fill-opacity:1;stroke:#b5b5b5;stroke-opacity:1;stroke-width:3;stroke-miterlimit:4;stroke-dasharray:none"
         id="path3387"
         inkscape:connector-curvature="0" />
      <path
         d="m 524.74856,659.7042 -20.16002,0 0,49.49905 -20.27264,0 0,-49.49905 -20.16002,0 0,-13.74034 60.59268,0 0,13.74034 z"
         style="fill:#363636;fill-opacity:1;stroke:#b5b5b5;stroke-opacity:1;stroke-width:3;stroke-miterlimit:4;stroke-dasharray:none"
         id="path3389"
         inkscape:connector-curvature="0" />
      <path
         d="m 598.80005,709.20325 -19.6532,0 0,-38.68697 -27.4807,38.68697 -16.78124,0 0,-63.23939 19.6532,0 0,34.63243 25.45343,-34.63243 18.80851,0 0,63.23939 z"
         style="fill:#363636;fill-opacity:1;stroke:#b5b5b5;stroke-opacity:1;stroke-width:3;stroke-miterlimit:4;stroke-dasharray:none"
         id="path3391"
         inkscape:connector-curvature="0" />
    </g>
    <flowRoot
       xml:space="preserve"
       id="flowRoot3355"
       style="font-style:normal;font-weight:normal;font-size:35px;line-height:125%;font-family:sans-serif;letter-spacing:0px;word-spacing:0px;fill:#000000;fill-opacity:1;stroke:none;stroke-width:1px;stroke-linecap:butt;stroke-linejoin:miter;stroke-opacity:1"><flowRegion
         id="flowRegion3357"><rect
           id="rect3359"
           width="62.629459"
           height="139.40105"
           x="74.751289"
           y="205.85437" /></flowRegion><flowPara
         id="flowPara3361" /></flowRoot>    <g
       style="font-style:normal;font-variant:normal;font-weight:bold;font-stretch:normal;font-size:113.60142517px;line-height:125%;font-family:Aharoni;-inkscape-font-specification:'Aharoni Bold';letter-spacing:0px;word-spacing:0px;fill:#363636;fill-opacity:1;stroke:#b5b5b5;stroke-width:3;stroke-linecap:butt;stroke-linejoin:miter;stroke-opacity:1;stroke-miterlimit:4;stroke-dasharray:none"
       id="text3363"
       transform="translate(-5.5500425,0)">
      <path
         d="m 151.14364,752.15514 -30.06444,66.06411 q -2.60706,5.71335 -5.9907,9.20793 -3.38364,3.49457 -6.98915,5.15866 -3.60551,1.71955 -7.15556,2.21877 -3.494573,0.49923 -6.989148,0.49923 -3.882861,0 -9.207928,-0.22188 -5.325067,-0.16641 -7.044619,-0.33281 l 0,-18.02757 1.275797,0 q 1.164858,0.33281 4.104739,0.7211 2.93988,0.33282 5.824292,0.33282 5.491475,0 8.875111,-1.05392 3.439106,-1.05392 4.215676,-2.77348 l -33.559013,-61.79296 23.130759,0 20.523694,39.16143 16.91818,-39.16143 22.13231,0 z"
         style="fill:#363636;fill-opacity:1;stroke:#b5b5b5;stroke-opacity:1;stroke-width:3;stroke-miterlimit:4;stroke-dasharray:none"
         id="path3362"
         inkscape:connector-curvature="0" />
      <path
         d="m 227.08131,834.74915 -23.07529,0 -16.6963,-24.68391 -6.37898,0 0,24.68391 -19.96901,0 0,-62.29219 19.96901,0 0,25.01672 q 5.54694,-0.0555 7.65478,-1.16486 2.10784,-1.16486 4.88131,-6.04617 0.83204,-1.44221 1.9969,-3.71645 1.16486,-2.27425 1.83049,-3.49458 3.05082,-5.436 7.10009,-8.04307 4.10474,-2.66253 11.37124,-2.66253 2.10784,0 4.43755,0.0555 2.38519,0.0555 3.21723,0.0555 l 0,16.64083 -5.436,0 q -3.32817,0 -5.32507,1.66408 -1.94143,1.66409 -3.38364,4.93679 -1.22033,2.718 -2.21878,4.32661 -0.99845,1.55315 -2.55159,2.66254 l 22.57606,32.06134 z"
         style="fill:#363636;fill-opacity:1;stroke:#b5b5b5;stroke-opacity:1;stroke-width:3;stroke-miterlimit:4;stroke-dasharray:none"
         id="path3364"
         inkscape:connector-curvature="0" />
      <path
         d="m 302.29788,802.74328 q 0,7.71025 -2.38519,14.03377 -2.32972,6.32351 -6.15711,10.42825 -3.9938,4.32662 -9.04152,6.5454 -5.04772,2.21877 -10.81654,2.21877 -5.32507,0 -9.04152,-1.16486 -3.71645,-1.10938 -7.59931,-3.16175 l 0,25.9597 -19.969,0 0,-85.1456 19.969,0 0,6.48992 q 4.60396,-3.66098 9.37433,-5.93523 4.82584,-2.27425 11.09389,-2.27425 11.64859,0 18.08304,8.5423 6.48993,8.54229 6.48993,23.46358 z m -20.57917,0.38828 q 0,-9.09699 -3.10629,-13.20173 -3.10629,-4.10474 -9.81809,-4.10474 -2.82894,0 -5.82429,0.88752 -2.99535,0.83204 -5.71335,2.44065 l 0,31.34024 q 1.9969,0.77657 4.27114,0.99845 2.27425,0.22188 4.49303,0.22188 7.93213,0 11.81499,-4.60397 3.88286,-4.65943 3.88286,-13.9783 z"
         style="fill:#363636;fill-opacity:1;stroke:#b5b5b5;stroke-opacity:1;stroke-width:3;stroke-miterlimit:4;stroke-dasharray:none"
         id="path3366"
         inkscape:connector-curvature="0" />
      <path
         d="m 354.43916,818.4966 0,-12.97985 q -4.04927,0.33281 -8.76417,0.94298 -4.71491,0.55469 -7.15556,1.33126 -2.99535,0.94299 -4.60397,2.77348 -1.55314,1.77502 -1.55314,4.7149 0,1.94143 0.33282,3.16176 0.33281,1.22033 1.66408,2.32972 1.2758,1.10938 3.05082,1.66408 1.77502,0.49922 5.54694,0.49922 2.99535,0 6.04617,-1.22032 3.10629,-1.22033 5.43601,-3.21723 z m 0,9.65168 q -1.60861,1.22033 -3.9938,2.93988 -2.38519,1.71955 -4.49303,2.718 -2.93988,1.33127 -6.10163,1.94144 -3.16176,0.66563 -6.93369,0.66563 -8.87511,0 -14.86581,-5.49148 -5.9907,-5.49147 -5.9907,-14.03377 0,-6.82274 3.05082,-11.14935 3.05082,-4.32662 8.65324,-6.82275 5.54694,-2.49612 13.75642,-3.55004 8.20948,-1.05392 17.02912,-1.55315 l 0,-0.33281 q 0,-5.15866 -4.21568,-7.10009 -4.21568,-1.9969 -12.42516,-1.9969 -4.93678,0 -10.53919,1.77502 -5.60241,1.71955 -8.04307,2.66253 l -1.83049,0 0,-15.03222 q 3.16176,-0.83204 10.26185,-1.94143 7.15555,-1.16485 14.31111,-1.16485 17.02912,0 24.57297,5.26959 7.59931,5.21413 7.59931,16.41896 l 0,42.37866 -19.80259,0 0,-6.60087 z"
         style="fill:#363636;fill-opacity:1;stroke:#b5b5b5;stroke-opacity:1;stroke-width:3;stroke-miterlimit:4;stroke-dasharray:none"
         id="path3368"
         inkscape:connector-curvature="0" />
      <path
         d="m 412.57114,834.74915 -19.969,0 0,-62.29219 19.969,0 0,62.29219 z m 10.42825,-71.1673 -15.36503,0 0,-15.14316 15.36503,0 0,15.14316 z m -25.46047,0 -15.36504,0 0,-15.14316 15.36504,0 0,15.14316 z"
         style="fill:#363636;fill-opacity:1;stroke:#b5b5b5;stroke-opacity:1;stroke-width:3;stroke-miterlimit:4;stroke-dasharray:none"
         id="path3370"
         inkscape:connector-curvature="0" />
      <path
         d="m 494.3331,834.74915 -19.969,0 0,-26.56987 -22.96435,0 0,26.56987 -19.969,0 0,-62.29219 19.969,0 0,21.46667 22.96435,0 0,-21.46667 19.969,0 0,62.29219 z"
         style="fill:#363636;fill-opacity:1;stroke:#b5b5b5;stroke-opacity:1;stroke-width:3;stroke-miterlimit:4;stroke-dasharray:none"
         id="path3372"
         inkscape:connector-curvature="0" />
      <path
         d="m 576.26147,834.74915 -19.35884,0 0,-38.10751 -27.06909,38.10751 -16.52989,0 0,-62.29219 19.35883,0 0,34.11371 25.07219,-34.11371 18.5268,0 0,62.29219 z"
         style="fill:#363636;fill-opacity:1;stroke:#b5b5b5;stroke-opacity:1;stroke-width:3;stroke-miterlimit:4;stroke-dasharray:none"
         id="path3374"
         inkscape:connector-curvature="0" />
    </g>
  </g>
</svg>
